PathFileType	4	(X/Y/Z)	C:/Users/beibeiliu/ov580/test_trc/User3\sequence.6_training_dense_left.trc
DataRate	CameraRate	NumFrames	NumMarkers	Units	OrigDataRate	OrigDataStartFrame	OrigNumFrames
120	120	9	19	mm	120	54	107
Frame#	Time	ThumbCMC			ThumbMCP			ThumbIP			ThumbTip			IndexMCP			IndexPIP			IndexTip			MiddleMCP			MiddlePIP			MiddleTip			RingMCP			RingPIP			RingTip			PinkyMCP			PinkyPIP			PinkyTip			BackHand1			BackHand2			BackHand3	
		X0	Y0	Z0	X1	Y1	Z1	X2	Y2	Z2	X3	Y3	Z3	X4	Y4	Z4	X5	Y5	Z5	X6	Y6	Z6	X7	Y7	Z7	X8	Y8	Z8	X9	Y9	Z9	X10	Y10	Z10	X11	Y11	Z11	X12	Y12	Z12	X13	Y13	Z13	X14	Y14	Z14	X15	Y15	Z15	X16	Y16	Z16	X17	Y17	Z17	X18	Y18	Z18	
53	0.441667	-152.924	-20.5641	17.9738	-137.27	-30.5542	-14.2888	-136.945	-40.9058	-45.0945	-157.194	-48.9102	-58.8384	-166.555	-0.250465	-56.1715	-158.525	-30.3209	-69.4822	-156.888	-40.9935	-39.9937	-182.323	-7.66306	-64.8827	-176.786	-39.5965	-67.8537	-178.007	-39.8738	-28.7061	-199.86	-15.7989	-56.9868	-196.306	-44.9991	-58.752	-189.108	-48.0075	-26.9965	-218.528	-23.1746	-47.0748	-205.592	-48.7518	-48.4593	-199.476	-50.7917	-19.1287	-214.518	6.45296	-0.260042	-215.325	0.539212	27.5803	-178.422	10.0688	11.6089	
54	0.45	-151.955	-20.4165	15.4462	-138.192	-31.8756	-9.50654	-135.095	-41.4601	-41.1949	-153.184	-50.232	-57.4536	-165.876	-1.51319	-55.666	-157.096	-32.5737	-69.9628	-155.656	-45.1977	-42.5573	-186.903	-7.96515	-62.6391	-175.789	-39.3372	-68.7357	-175.194	-44.6911	-29.8989	-204.257	-16.8005	-55.1424	-197.663	-47.2143	-59.6822	-188.683	-51.1804	-30.0708	-218.395	-25.5036	-48.1765	-207.27	-49.7211	-51.4653	-198.828	-53.5236	-23.3968	-213.297	4.37887	-1.202	-216.213	-4.44327	29.3488	-178.426	5.80581	13.9489	
55	0.458333	-153.296	-22.9465	17.8693	-135.888	-33.4877	-10.1805	-134.971	-42.2897	-37.5207	-145.174	-52.6253	-61.1968	-165.049	-0.0902227	-52.8373	-157.293	-26.0375	-74.5905	-155.256	-48.7347	-51.5239	-182.985	-4.09177	-61.9733	-174.452	-34.2606	-77.0945	-175.974	-52.435	-44.606	-200.584	-11.3829	-53.3871	-196.706	-43.7671	-67.0532	-188.719	-56.0232	-40.0507	-220.482	-22.0059	-46.1883	-209.97	-43.7873	-58.3856	-200.382	-60.6534	-29.9135	-207.814	2.35785	0.314204	-210.577	-2.14274	28.0116	-178.171	6.18157	17.4952	
56	0.466667	-149.519	-22.3368	16.2742	-131.827	-33.9974	-8.11758	-125.217	-43.7837	-36.3786	-132.17	-54.8623	-57.7069	-161.041	1.98319	-55.3396	-153.557	-16.4897	-81.3352	-151.089	-46.3427	-74.5653	-183.454	2.04859	-63.8779	-179.517	-22.8176	-86.9804	-178.499	-55.2588	-66.1667	-202.488	-7.35979	-53.0483	-201.219	-32.4714	-77.0942	-189.504	-57.1129	-59.5512	-219.924	-18.2765	-41.0023	-216.762	-35.076	-63.7278	-205.164	-63.6348	-51.4659	-210.039	2.948	-4.27398	-212.253	-0.675736	29.8358	-174.129	4.19262	11.5747	
57	0.475	-150.916	-23.9935	17.9295	-132.554	-34.5999	-4.95594	-123.474	-45.6699	-34.1652	-122.969	-56.6212	-53.4772	-159.815	0.881771	-59.0235	-155.041	-8.97249	-87.2248	-151.227	-36.9447	-98.6522	-187.647	6.47453	-62.9518	-185.505	-3.35618	-92.0352	-183.819	-44.3715	-101.931	-205.881	-2.79651	-57.321	-207.573	-15.7495	-85.0306	-203.278	-44.6093	-90.3017	-227.031	-17.3512	-41.1693	-231.351	-31.7469	-67.1532	-224.228	-57.0521	-75.0519	-209.565	-0.17924	-2.98706	-206.66	0.686861	26.2351	-175.718	3.49515	10.8169	
58	0.483333	-146.94	-24.2305	16.6771	-131.565	-35.6238	-5.94351	-117.073	-45.7993	-28.238	-111.21	-57.0064	-51.3307	-162.67	0.817452	-57.2639	-155.589	-1.29804	-85.8876	-151.071	-17.4336	-113.579	-190.907	6.88803	-60.6089	-189.172	3.67362	-95.9864	-189.32	-16.3947	-124.351	-211.327	-1.25299	-52.8966	-216.753	-5.88909	-83.8243	-217.464	-22.7139	-104.33	-232.937	-14.6793	-39.6248	-239.384	-21.2854	-62.5713	-243.234	-40.8849	-83.6576	-205.938	2.37234	-5.79411	-208.221	0.535347	27.1604	-176.426	3.44305	7.30919	
59	0.491667	-147.955	-23.9491	16.1676	-132.065	-34.3952	-6.76998	-116.963	-43.7539	-29.2075	-109.235	-53.7278	-50.7154	-162.071	3.17143	-61.2479	-152.799	2.67781	-87.3364	-152.368	0.0572815	-109.094	-194.09	10.9278	-63.5118	-190.918	12.3475	-89.6853	-195.246	7.01219	-122.672	-215.735	2.09012	-55.427	-219.32	1.41247	-82.5437	-227.387	-5.39842	-109.42	-235.483	-12.211	-36.2497	-247.741	-16.1043	-62.0114	-253.788	-23.8005	-79.352	-212.225	4.3269	-0.013235	-210.304	3.72333	27.3973	-173.664	4.34545	6.80816	
60	0.5	-149.142	-20.1003	14.0217	-134.053	-29.1356	-8.55159	-115.788	-38.2612	-35.224	-109.11	-45.7923	-52.0727	-168.467	6.95384	-56.7474	-160.679	10.887	-84.1739	-156.171	11.2084	-113.239	-192.603	15.6344	-61.973	-194.766	18.947	-87.4431	-192.955	21.5719	-123.503	-218.566	6.88253	-53.602	-225.766	8.77711	-79.1634	-229.02	7.50532	-103.715	-237.009	-6.76651	-37.0817	-250.827	-8.49353	-56.5083	-261.834	-9.32206	-75.6325	-211.008	8.18465	-4.51779	-208.222	5.1492	28.8512	-180.548	5.69752	6.58684	
61	0.508333	-149.668	-19.6334	8.84207	-133.314	-29.1016	-12.3893	-117.646	-37.581	-35.7327	-106.941	-45.1089	-56.3467	-173.146	11.3231	-59.4257	-164.79	16.0633	-87.5447	-156.928	16.1417	-112.781	-196.214	20.2371	-64.4296	-198.703	25.6897	-92.0102	-198.167	28.761	-123.326	-223.309	11.1189	-52.2381	-226.851	15.8533	-78.6714	-236.681	16.206	-104.802	-243.577	-0.196659	-37.0822	-253.627	0.0187456	-57.1702	-262.799	-0.68916	-76.1525	-213.547	10.9431	-5.21246	-208.921	7.28044	24.5908	-175.003	9.05145	5.96353	
